# xmcd
#
# Track frame offsets: 
#        150
#        24326
#        40812
#        68450
#        82930
#        99297
#
# Disc length: 1498 seconds
#
# Revision: 0
# Processed by: cddbd v1.5.2PL0 Copyright (c) Steve Scherf et al.
# Submitted via: ExactAudioCopy v1.3
#
DISCID=3405d806
DTITLE=Joe O'Boyle and The Tricky Brothe - Wasted Youth
DYEAR=2019
DGENRE=Blues
TTITLE0=Wasted Youth
TTITLE1=Carpstone Blues
TTITLE2=Strangers
TTITLE3=Let Me Go Home Whisky
TTITLE4=Thinking' Bout Tomorrow
TTITLE5=Babe, We Are Going Down
EXTD=
EXTT0=
EXTT1=
EXTT2=
EXTT3=
EXTT4=
EXTT5=
PLAYORDER=
